<svg width="20" height="21" viewBox="0 0 20 21" fill="none" xmlns="http://www.w3.org/2000/svg">
<path fill-rule="evenodd" clip-rule="evenodd" d="M10 18.5C14.4183 18.5 18 14.9183 18 10.5C18 6.08172 14.4183 2.5 10 2.5C5.58172 2.5 2 6.08172 2 10.5C2 14.9183 5.58172 18.5 10 18.5ZM13.8566 8.69113C14.1002 8.35614 14.0261 7.88708 13.6911 7.64345C13.3561 7.39982 12.8871 7.47388 12.6434 7.80887L9.15969 12.599L7.28033 10.7197C6.98744 10.4268 6.51256 10.4268 6.21967 10.7197C5.92678 11.0126 5.92678 11.4874 6.21967 11.7803L8.71967 14.2803C8.87477 14.4354 9.08999 14.5149 9.30867 14.4977C9.52734 14.4805 9.72754 14.3685 9.85655 14.1911L13.8566 8.69113Z" fill="#1D4ED8"/>
</svg>
